<svg height="35" viewBox="0 0 125 35" width="125" xmlns="http://www.w3.org/2000/svg"><g fill="none"><path d="m48.89 0c0 2.497-.018 4.977-.018 7.474 0 .51-.018 1.02 0 1.55.019.528-.09.328-.346.328h-8.586c-.292 0-.346-.11-.346-.365.018-2.844.018-5.688.018-8.531-.003-.153-.015-.305-.036-.456h9.315zm-2.023 1.75c-.492 0-.875.036-1.258 0-.382-.036-.547.11-.729.401-.182.292-.729 1.112-1.075 1.659-.111.19-.345.267-.547.182-.091-.036-.146-.255-.146-.383-.012-.486-.012-.978 0-1.476 0-.292-.11-.401-.401-.383h-.893c-.08-.013-.163.014-.22.072-.058.057-.085.14-.072.22.018.346 0 .674 0 1.002 0 1.404.018 2.808 0 4.23 0 .255.073.382.365.364.285-.018.571-.018.856 0 .274.018.365-.091.365-.365-.018-.565 0-1.13-.018-1.695s.164-.383.4-.328c.124.04.228.125.292.237.42.62.803 1.258 1.204 1.896.072.091.164.219.255.237.547.018 1.094 0 1.695 0-.07-.145-.15-.285-.237-.42l-1.531-2.388c-.13-.145-.13-.365 0-.51l1.458-2.151c.073-.091.11-.2.237-.401z" fill="#c69c6d"/><path d="m38.92 0c-.022.151-.034.303-.037.456 0 2.825 0 5.669.018 8.495 0 .31-.091.419-.42.419h-8.511c-.328.018-.42-.091-.42-.401.019-2.844.019-5.688.019-8.531-.004-.148-.017-.293-.039-.438h9.388zm-3.045 4.557c.2-.273.438-.492.547-.765.364-.948-.274-1.896-1.367-1.97-1.094-.072-2.042-.036-3.063-.072-.237 0-.291.146-.291.346v5.177c0 .274.109.365.382.365.839-.018 1.696.018 2.534-.018.385-.018.766-.092 1.13-.219.489-.148.854-.555.948-1.057.183-.839-.018-1.295-.82-1.787zm23.133-4.557c0 2.917-.018 5.833-.018 8.75 0 .693.054.602-.602.602h-8.258c-.328.018-.42-.092-.42-.401.025-2.844.025-5.688 0-8.532 0-.127-.017-.273-.017-.419h9.315zm-2.608 4.32v2.99c0 .237.073.346.31.328.297-.018.596-.018.893 0 .219 0 .31-.091.31-.292-.012-1.762-.012-3.53 0-5.304 0-.22-.128-.292-.346-.292h-1.149c-.176-.018-.342.087-.4.255l-.675 1.477c-.31.674-.638 1.367-.966 2.114-.092-.182-.164-.31-.22-.437l-1.421-3.1c-.053-.202-.248-.334-.456-.309h-1.057c-.31-.018-.383.11-.383.383.018 1.166 0 2.333 0 3.5 0 .565.018 1.13 0 1.695 0 .219.091.328.31.31.054-.01.11-.01.164 0 .984 0 .984 0 .984-.966v-2.352c.42.93.857 1.769 1.185 2.662.22.547.529.729 1.076.656.209.013.402-.113.474-.31.437-.984.893-1.969 1.367-3.008zm14.202 13.545c-.055 2.078-.401 4.083-1.368 5.942-1.148 2.224-2.916 3.7-5.395 4.211-1.295.29-2.644.221-3.901-.2-.383-.128-.383-.11-.438.273-.346 2.188-.71 4.375-1.057 6.563-.019.2-.128.273-.328.273h-4.558c-.255 0-.291-.11-.255-.328l2.024-11.721c.583-3.373 1.148-6.745 1.731-10.118.006-.189.142-.348.328-.382 1.444-.449 2.927-.754 4.43-.912.871-.106 1.748-.167 2.625-.182 1.149 0 2.297.182 3.336.747 1.568.839 2.333 2.224 2.625 3.92.11.62.128 1.276.2 1.914zm-8.933 6.744c.985-.054 1.75-.419 2.297-1.203.327-.457.597-.953.802-1.476.51-1.313.656-2.698.656-4.102-.01-.562-.096-1.12-.255-1.659-.146-.586-.64-1.02-1.24-1.093-.665-.102-1.346-.046-1.986.164-.132.085-.22.226-.237.382-.146.693-.255 1.404-.383 2.097-.365 2.096-.73 4.174-1.112 6.27-.037.238.036.329.237.365z" fill="#808080"/><path d="m36.33 23.096c.201.638.402 1.222.584 1.823.182.602.255.784.401 1.185s.037.328-.164.438c-1.004.592-2.092 1.028-3.227 1.294-1.677.401-3.354.547-5.03.182-2.462-.528-3.938-2.06-4.34-4.484-.564-3.61.347-6.836 2.863-9.534 1.53-1.659 3.481-2.516 5.742-2.698 1.112-.091 2.206-.036 3.245.346 1.604.566 2.46 1.823 2.497 3.519.055 2.37-1.039 4.028-3.08 5.104-1.331.693-2.753 1.039-4.23 1.258l-1.768.2c-.182 0-.237.091-.237.274.091 1.221.73 2.15 2.115 2.333 1.385.182 2.442-.182 3.572-.711l1.058-.529zm-6.416-4.466c1.44-.127 2.753-.42 3.828-1.367.324-.289.537-.682.602-1.112.066-.3-.007-.613-.198-.854-.19-.24-.48-.382-.787-.386-.721-.04-1.425.233-1.932.748-.82.802-1.221 1.805-1.513 2.971z" fill="#00a99d"/><path d="m93.953 23.133c.346 1.075.693 2.06.984 3.08.037.073-.09.256-.2.329-1.128.666-2.36 1.134-3.646 1.385-1.047.23-2.12.316-3.19.255-1.586-.09-3.08-.492-4.247-1.695-.823-.87-1.341-1.983-1.477-3.172-.437-3.281.346-6.253 2.461-8.823 1.388-1.707 3.378-2.816 5.56-3.099 1.209-.208 2.449-.14 3.628.2 1.695.511 2.661 1.842 2.697 3.61.055 2.753-1.53 4.393-3.645 5.323-1.368.602-2.808.893-4.302 1.057-.347.037-.711.11-1.076.128s-.31.128-.292.346c.146 1.459 1.076 2.334 2.552 2.352 1.477.018 2.57-.42 3.737-1.04zm-6.417-4.557c.073.036.11.072.146.054 1.185-.09 2.334-.364 3.318-1.039.474-.328.857-.729.984-1.312.128-.584-.273-1.35-1.057-1.386s-1.55.347-2.096.985c-.547.638-1.058 1.695-1.295 2.698zm-31.408-6.782-1.513 1.841-4.594 5.542c-.214.204-.26.529-.11.784 1.185 2.424 2.334 4.867 3.482 7.292.055.109.091.237.164.382l-.346.037h-4.685c-.222.026-.431-.113-.492-.328l-1.531-3.464c-.055-.127-.128-.255-.22-.437l-.418.474c-.894 1.13-1.805 2.26-2.68 3.39-.175.246-.465.383-.766.365-1.567-.018-3.135 0-4.721 0h-.401l.82-1.021c1.957-2.297 3.895-4.606 5.815-6.927.172-.152.21-.405.091-.602l-3.28-7-.128-.31h4.776c.273 0 .4.073.492.31.456 1.149.948 2.279 1.403 3.427l.201.402.237-.256c.93-1.185 1.841-2.351 2.734-3.536.16-.234.428-.371.711-.365zm65.862 4.576c-.602-.365-1.258-.784-1.933-1.13-.61-.318-1.313-.414-1.987-.274-.547.128-.984.383-1.093.966-.136.52.096 1.067.565 1.331.463.275.944.52 1.44.73.875.437 1.823.765 2.643 1.293 1.385.894 1.841 2.297 1.695 3.92-.255 2.534-1.786 3.974-4.12 4.593-3.08.82-6.033.42-8.804-1.184-.383-.237-.365-.256-.164-.638l1.695-3.063.255.146c1.222.71 2.498 1.276 3.92 1.404.406.015.812-.034 1.203-.146.442-.106.77-.478.82-.93.08-.445-.142-.89-.547-1.094-.565-.291-1.167-.528-1.732-.784-.565-.255-1.567-.638-2.26-1.075-1.221-.747-1.75-1.932-1.805-3.336-.054-1.404.438-3.08 1.696-4.193.966-.838 2.132-1.276 3.372-1.495 2.46-.4 4.721.073 6.763 1.513.31.22.565.493.857.73.291.237.164.2.018.328zm-13.927.073c-.456-.292-.876-.62-1.331-.875-.645-.424-1.398-.652-2.17-.657-.273.016-.544.071-.802.165-.93.382-1.112 1.476-.31 2.096.431.303.896.553 1.386.747.766.365 1.568.638 2.315 1.04 1.112.583 1.896 1.476 2.115 2.752.419 2.588-.693 4.794-3.245 5.815-1.55.62-3.154.766-4.794.62-1.597-.12-3.148-.593-4.54-1.386-.82-.474-.674-.31-.291-1.02l1.33-2.443c.064-.133.137-.261.22-.383l.455.255c1.13.657 2.352 1.167 3.664 1.276.483.035.968-.033 1.422-.2.378-.145.641-.493.676-.897.035-.403-.164-.792-.512-.999-.443-.278-.913-.51-1.404-.693-.656-.291-1.349-.51-1.987-.82-1.458-.711-2.333-1.86-2.442-3.518-.11-1.66.419-3.39 1.86-4.576.947-.765 2.059-1.13 3.226-1.33 1.836-.328 3.73-.073 5.414.729.791.363 1.513.863 2.133 1.476.127.146.182.255.018.42l-2.334 2.37-.073.036zm-30.881-2.534c.948-1.477 2.17-2.552 3.992-2.625.881-.065 1.76.145 2.516.601-.273.82-.547 1.605-.82 2.388l-.51 1.495c-.074.274-.183.365-.456.237-.63-.299-1.328-.43-2.024-.383-1.349.073-2.297 1.058-2.534 2.407-.547 3.099-1.1 6.204-1.659 9.315-.036.218-.109.328-.382.328-1.477-.018-2.972 0-4.448 0-.292 0-.347-.11-.31-.365.638-3.554 1.258-7.127 1.896-10.7.276-1.424.417-2.87.419-4.32 0-.475.036-.511.492-.511 1.094 0 2.188.018 3.281 0 .292 0 .401.073.401.383-.018.583.037 1.148.055 1.713z" fill="#808080"/><path d="m0 27.672 2.443-1.768c1.002-.711 1.987-1.44 3.008-2.151.163-.123.36-.193.565-.2h16.278c.219 0 .347 0 .401.254.208 1.464.887 2.82 1.933 3.865zm3.865-6.052.31-.255 5.177-3.72c.153-.113.337-.176.528-.181h13.326c-.146.62-.328 1.22-.438 1.84-.11.646-.183 1.297-.219 1.951-.036.292-.145.347-.4.347h-18.285v.018zm23.606-10.08c-1.16.832-2.145 1.885-2.898 3.098-.108.141-.2.294-.274.456-.164.474-.473.583-.966.583-5.231-.036-10.445-.018-15.677-.018h-.419l.255-.219 5.232-3.773c.124-.087.269-.137.42-.146h14.326v.018z" fill="#00a99d"/><path d="m34.07 6.453c-.875 0-.856 0-.875-.875-.018-.31.091-.42.401-.4h1.021c.42.017.584.2.565.637-.018.438-.164.602-.565.62zm-.164-2.297c-.82-.036-.692.091-.71-.71 0-.511 0-.511.51-.511l.948.073c.234.02.411.22.4.456 0 .255-.054.51-.327.583-.271.054-.545.09-.82.11z" fill="#808080"/></g></svg>