<svg height="32" viewBox="0 0 32 32" width="32" xmlns="http://www.w3.org/2000/svg"><path d="m16 24.484-6.13 3.435c-.642.36-1.454.132-1.814-.51-.155-.278-.207-.6-.145-.912l1.37-6.903-5.162-4.78c-.54-.5-.573-1.343-.073-1.884.215-.232.507-.38.821-.418l6.98-.829 2.942-6.387c.308-.67 1.1-.962 1.769-.654.288.133.52.365.653.654l2.943 6.387 6.979.83c.731.086 1.253.75 1.167 1.48-.038.315-.186.606-.419.822l-5.161 4.78 1.369 6.902c.143.722-.326 1.424-1.048 1.567-.312.062-.635.01-.912-.145zm0-2.816 5.21 2.92-1.164-5.863 4.382-4.06-5.928-.704-2.5-5.429-2.5 5.43-5.928.703 4.382 4.06-1.164 5.863z" fill="#fff" fill-rule="evenodd" opacity=".6"/></svg>