<svg height="32" viewBox="0 0 32 32" width="32" xmlns="http://www.w3.org/2000/svg"><path d="m16 2.667c7.352 0 13.333 5.98 13.333 13.333s-5.981 13.333-13.333 13.333-13.333-5.98-13.333-13.333c0-7.354 5.981-13.333 13.333-13.333zm-.002 1.778c-6.38 0-11.554 5.175-11.554 11.555 0 6.383 5.174 11.555 11.554 11.555 6.382 0 11.558-5.172 11.558-11.555 0-6.38-5.176-11.555-11.558-11.555zm0 4.222 2.123 2.149 2.107 2.133.014.013c2.344 2.373 2.344 6.22 0 8.591-2.342 2.374-6.141 2.374-8.485 0-2.343-2.372-2.343-6.219 0-8.591l.034-.034 2.088-2.114 2.121-2.147z" fill="#339af0" fill-rule="evenodd"/></svg>