<svg height="32" viewBox="0 0 32 32" width="32" xmlns="http://www.w3.org/2000/svg"><path d="m2.667 0h9.185v11.852h-11.852v-9.185c0-1.473 1.194-2.667 2.667-2.667zm-2.667 14.815h11.852v11.852h-9.185c-1.473 0-2.667-1.194-2.667-2.667zm14.815-14.815h9.185c1.473 0 2.667 1.194 2.667 2.667v9.185h-11.852zm0 14.815h11.852v9.185c0 1.473-1.194 2.667-2.667 2.667h-9.185zm2.963-11.852v5.926h5.926v-5.926zm0 14.815v5.926h5.926v-5.926zm-14.815-14.815v5.926h5.926v-5.926zm0 14.815v5.926h5.926v-5.926z" fill="#fff" fill-rule="evenodd" opacity=".6" transform="translate(2.667 2.667)"/></svg>